# xmcd
#
# Track frame offsets:
#	182
#	36272
#	67745
#	88145
#	117015
#	148382
#
# Disc length: 2247 seconds
#
# Revision: 9
# Processed by: cddbd v1.5.2PL0 Copyright (c) Steve Scherf et al.
# Submitted via: audiograbber 1.83.01
#
DISCID=5008c506
DTITLE=Madonna / cd single - Don't Cry For Me Argentina
DYEAR=1997
DGENRE=Pop
TTITLE0=Don't Cry For Me Argentina [miami alternate ending mix]
TTITLE1=Don't Cry For Me Argentina [miami spanglish mix]
TTITLE2=Don't Cry For Me Argentina [miami mix edit]
TTITLE3=Don't Cry For Me Argentina [miami dub mix]
TTITLE4=Don't Cry For Me Argentina [miami instrumental mix]
TTITLE5=Don't Cry For Me Argentina [miami spanglish mix edit]
EXTD=
EXTT0=
EXTT1=
EXTT2=
EXTT3=
EXTT4=
EXTT5=
PLAYORDER=
.
